# xmcd
#
# Track frame offsets:
#	150
#	4969
#	24227
#	43499
#	60542
#	74375
#	98671
#	116439
#	133842
#	149327
#	162959
#	179116
#	191876
#
# Disc length: 3403 seconds
#
# Revision: 1
# Processed by: cddbd v1.5.1PL0 Copyright (c) Steve Scherf et al.
# Submitted via: audiograbber 1.83.01
#
DISCID=c10d490d
DTITLE=n'RoK - Album Nr. 1
DYEAR=2004
DGENRE=Punk Rock
TTITLE0=Intro
TTITLE1=Feedback
TTITLE2=Victim of Destiny
TTITLE3=Game of Death
TTITLE4=1933
TTITLE5=The People
TTITLE6=Charmin Song
TTITLE7=Happy
TTITLE8=No
TTITLE9=Chrissie's Home
TTITLE10=Who Needs a Woman
TTITLE11=Kommerz
TTITLE12=Say Sorry
EXTD=Bensheim Punk Rock
EXTT0=
EXTT1=
EXTT2=
EXTT3=
EXTT4=
EXTT5=
EXTT6=
EXTT7=
EXTT8=
EXTT9=
EXTT10=
EXTT11=
EXTT12=
PLAYORDER=
